<svg width="1200" height="630" viewBox="0 0 1200 630" fill="none" xmlns="http://www.w3.org/2000/svg">
  <rect width="1200" height="630" rx="32" fill="#F8F6F0"/>
  <circle cx="190" cy="104" r="190" fill="url(#paint0_radial)" fill-opacity="0.55"/>
  <circle cx="985" cy="516" r="220" fill="url(#paint1_radial)" fill-opacity="0.48"/>
  <rect x="74" y="72" width="1052" height="486" rx="40" fill="white"/>
  <rect x="74" y="72" width="1052" height="486" rx="40" stroke="#E7E0D1"/>
  <path d="M167 356.5L344 212L521 356.5V472C521 488.569 507.569 502 491 502H197C180.431 502 167 488.569 167 472V356.5Z" fill="#14382D"/>
  <path d="M233 502V371H455V502" fill="#0F2A21"/>
  <rect x="587" y="170" width="288" height="156" rx="28" fill="#F7F4EC" stroke="#E6DECF"/>
  <rect x="615" y="200" width="182" height="20" rx="10" fill="#14382D" fill-opacity="0.12"/>
  <rect x="615" y="238" width="224" height="16" rx="8" fill="#14382D" fill-opacity="0.08"/>
  <rect x="615" y="266" width="158" height="16" rx="8" fill="#14382D" fill-opacity="0.08"/>
  <rect x="900" y="170" width="142" height="156" rx="28" fill="#14382D"/>
  <circle cx="971" cy="248" r="30" fill="#F4E7C5"/>
  <path d="M946 248C952.5 241.5 960.5 238 971 238C981.5 238 989.5 241.5 996 248" stroke="#14382D" stroke-width="6" stroke-linecap="round"/>
  <path d="M955 257.5C959.5 253.5 965 251.5 971 251.5C977 251.5 982.5 253.5 987 257.5" stroke="#14382D" stroke-width="6" stroke-linecap="round"/>
  <circle cx="971" cy="269" r="4.5" fill="#14382D"/>
  <rect x="596" y="362" width="208" height="120" rx="28" fill="#14382D"/>
  <circle cx="658" cy="422" r="26" fill="#F6F1E5"/>
  <rect x="697" y="399" width="77" height="12" rx="6" fill="white" fill-opacity="0.78"/>
  <rect x="697" y="421" width="56" height="10" rx="5" fill="white" fill-opacity="0.52"/>
  <rect x="834" y="362" width="208" height="120" rx="28" fill="#F7F4EC" stroke="#E6DECF"/>
  <path d="M889 420C909 391 945 382 973 391C1001 400 1020 423 1020 450" stroke="#14382D" stroke-width="10" stroke-linecap="round"/>
  <path d="M924 390V433" stroke="#14382D" stroke-width="10" stroke-linecap="round"/>
  <circle cx="924" cy="449" r="12" fill="#B28A49"/>
  <text x="585" y="116" fill="#14382D" font-family="Manrope, Arial, sans-serif" font-size="32" font-weight="700">NJR Maison Connectee</text>
  <text x="585" y="146" fill="#59645C" font-family="Manrope, Arial, sans-serif" font-size="18">Robot tondeuse • WiFi • Securite • Assistance informatique</text>
  <defs>
    <radialGradient id="paint0_radial" cx="0" cy="0" r="1" gradientUnits="userSpaceOnUse" gradientTransform="translate(190 104) rotate(90) scale(190)">
      <stop stop-color="#E6C98D"/>
      <stop offset="1" stop-color="#E6C98D" stop-opacity="0"/>
    </radialGradient>
    <radialGradient id="paint1_radial" cx="0" cy="0" r="1" gradientUnits="userSpaceOnUse" gradientTransform="translate(985 516) rotate(90) scale(220)">
      <stop stop-color="#D8E6DE"/>
      <stop offset="1" stop-color="#D8E6DE" stop-opacity="0"/>
    </radialGradient>
  </defs>
</svg>
